<?xml version="1.0" standalone="no"?>
<!DOCTYPE svg PUBLIC "-//W3C//DTD SVG 20010904//EN"
 "http://www.w3.org/TR/2001/REC-SVG-20010904/DTD/svg10.dtd">
<svg version="1.0" xmlns="http://www.w3.org/2000/svg"
 width="50.000000pt" height="50.000000pt" viewBox="0 0 50.000000 50.000000"
 preserveAspectRatio="xMidYMid meet">

<g transform="translate(0.000000,50.000000) scale(0.100000,-0.100000)"
fill="#000000" stroke="none">
<path d="M960 2400 c0 -20 -5 -30 -15 -30 -8 0 -15 -7 -15 -15 0 -8 -7 -15
-15 -15 -8 0 -15 -7 -15 -15 0 -8 -7 -15 -15 -15 -8 0 -15 -7 -15 -15 0 -13
72 -15 585 -15 l585 0 0 30 c0 27 3 30 30 30 29 0 30 -2 30 -45 0 -43 -1 -45
-30 -45 -27 0 -30 -3 -30 -30 l0 -30 -600 0 -600 0 0 -465 0 -465 -30 0 -30 0
0 465 c0 407 -2 465 -15 465 -13 0 -15 -65 -15 -525 l0 -525 -60 0 -60 0 0
-30 c0 -27 -3 -30 -30 -30 -20 0 -30 -5 -30 -15 0 -8 -7 -15 -15 -15 -13 0
-15 -30 -15 -210 l0 -210 30 0 c27 0 30 -3 30 -30 0 -20 5 -30 15 -30 8 0 15
-7 15 -15 0 -13 93 -15 780 -15 687 0 780 2 780 15 0 8 7 15 15 15 8 0 15 7
15 15 0 8 7 15 15 15 10 0 15 10 15 30 0 27 3 30 30 30 20 0 30 5 30 15 0 8 7
15 15 15 8 0 15 7 15 15 0 8 7 15 15 15 8 0 15 7 15 15 0 8 7 15 15 15 8 0 15
7 15 15 0 8 7 15 15 15 8 0 15 7 15 15 0 8 7 15 15 15 13 0 15 32 15 225 l0
225 -45 0 c-33 0 -45 4 -45 15 0 11 -12 15 -45 15 -33 0 -45 4 -45 15 0 8 -7
15 -15 15 -13 0 -15 65 -15 525 0 460 -2 525 -15 525 -10 0 -15 10 -15 30 l0
30 -630 0 -630 0 0 -30z m1200 -30 c0 -27 -3 -30 -30 -30 -27 0 -30 3 -30 30
0 27 3 30 30 30 27 0 30 -3 30 -30z m-180 -630 l0 -420 -540 0 -540 0 0 420 0
420 540 0 540 0 0 -420z m360 -510 c0 -27 -3 -30 -30 -30 -27 0 -30 -3 -30
-30 0 -27 -3 -30 -30 -30 -27 0 -30 -3 -30 -30 0 -27 -3 -30 -30 -30 -27 0
-30 3 -30 30 0 27 3 30 30 30 27 0 30 3 30 30 0 20 5 30 15 30 8 0 15 7 15 15
0 8 7 15 15 15 8 0 15 7 15 15 0 10 10 15 30 15 27 0 30 -3 30 -30z m-180
-390 l0 -180 -750 0 -750 0 0 180 0 180 750 0 750 0 0 -180z"/>
<path d="M1140 1770 l0 -150 90 0 90 0 0 -60 0 -60 210 0 210 0 0 150 0 150
-90 0 -90 0 0 60 0 60 -210 0 -210 0 0 -150z m360 60 l0 -30 -90 0 -90 0 0
-60 0 -60 -60 0 -60 0 0 90 0 90 150 0 150 0 0 -30z m180 -180 l0 -90 -150 0
-150 0 0 90 0 90 150 0 150 0 0 -90z"/>
<path d="M1440 900 l0 -60 300 0 300 0 0 60 0 60 -300 0 -300 0 0 -60z"/>
<path d="M780 840 l0 -60 60 0 60 0 0 60 0 60 -60 0 -60 0 0 -60z"/>
<path d="M780 2235 c0 -10 10 -15 30 -15 20 0 30 5 30 15 0 10 -10 15 -30 15
-20 0 -30 -5 -30 -15z"/>
</g>
</svg>
