<?xml version="1.0" standalone="no"?>
<!DOCTYPE svg PUBLIC "-//W3C//DTD SVG 20010904//EN"
 "http://www.w3.org/TR/2001/REC-SVG-20010904/DTD/svg10.dtd">
<svg version="1.0" xmlns="http://www.w3.org/2000/svg"
 width="50.000000pt" height="50.000000pt" viewBox="0 0 50.000000 50.000000"
 preserveAspectRatio="xMidYMid meet">

<g transform="translate(0.000000,50.000000) scale(0.100000,-0.100000)"
fill="#000000" stroke="none">
<path d="M510 1500 l0 -920 120 0 120 0 0 920 0 920 -120 0 -120 0 0 -920z"/>
<path d="M1140 1500 l0 -910 100 0 100 0 0 39 0 39 70 7 70 7 0 38 0 38 65 7
65 7 0 39 c0 39 0 39 40 39 40 0 40 0 40 39 l0 39 65 7 65 7 0 39 0 39 70 0
70 0 0 45 0 45 64 0 65 0 3 42 c3 39 5 42 33 43 111 4 105 1 105 44 l0 39 65
7 65 7 0 39 c0 39 0 39 40 39 l40 0 0 40 c0 38 2 40 30 40 29 0 30 2 30 45 l0
45 -37 2 c-21 0 -50 0 -65 -1 -27 -2 -28 0 -28 43 l0 46 -70 0 -70 0 0 45 0
45 -65 0 -65 0 0 39 c0 39 -1 40 -37 43 -37 3 -38 4 -41 46 l-3 42 -64 0 -64
0 -3 42 c-3 37 -6 42 -28 43 -120 5 -110 1 -110 44 l0 39 -65 7 -65 7 0 39 0
39 -70 0 -70 0 0 45 0 45 -65 0 -65 0 0 39 0 39 -73 7 -72 7 3 39 c4 39 4 39
-32 39 l-36 0 0 -910z m853 317 c18 -4 17 -5 -5 -6 -26 -1 -28 2 -26 37 1 36
1 36 5 5 3 -23 10 -33 26 -36z m-393 -1007 c0 -25 -4 -30 -25 -30 -21 0 -25 5
-25 30 0 25 4 30 25 30 21 0 25 -5 25 -30z"/>
<path d="M1228 2403 c7 -3 16 -2 19 1 4 3 -2 6 -13 5 -11 0 -14 -3 -6 -6z"/>
<path d="M1263 2375 c0 -22 2 -30 4 -17 2 12 2 30 0 40 -3 9 -5 -1 -4 -23z"/>
</g>
</svg>
