<?xml version="1.0" standalone="no"?>
<!DOCTYPE svg PUBLIC "-//W3C//DTD SVG 20010904//EN"
 "http://www.w3.org/TR/2001/REC-SVG-20010904/DTD/svg10.dtd">
<svg version="1.0" xmlns="http://www.w3.org/2000/svg"
 width="51.200000pt" height="51.200000pt" viewBox="0 0 51.200000 51.200000"
 preserveAspectRatio="xMidYMid meet">

<g transform="translate(0.000000,51.200000) scale(0.100000,-0.100000)"
fill="#000000" stroke="none">
<path d="M660 1500 l0 -840 120 0 120 0 0 40 0 40 80 0 80 0 0 40 0 40 40 0
40 0 0 40 0 40 80 0 80 0 0 40 0 40 80 0 80 0 0 40 0 40 80 0 80 0 0 40 0 40
80 0 80 0 0 40 0 40 80 0 80 0 0 40 0 40 80 0 80 0 0 40 0 40 40 0 40 0 0 40
0 40 40 0 40 0 0 40 0 40 -80 0 -80 0 0 40 0 40 -80 0 -80 0 0 40 0 40 -80 0
-80 0 0 40 0 40 -40 0 -40 0 0 40 0 40 -80 0 -80 0 0 40 0 40 -80 0 -80 0 0
40 0 40 -80 0 -80 0 0 40 0 40 -80 0 -80 0 0 40 0 40 -80 0 -80 0 0 40 0 40
-80 0 -80 0 0 40 0 40 -40 0 -40 0 0 -840z"/>
</g>
</svg>
