<?xml version="1.0" standalone="no"?>
<!DOCTYPE svg PUBLIC "-//W3C//DTD SVG 20010904//EN"
 "http://www.w3.org/TR/2001/REC-SVG-20010904/DTD/svg10.dtd">
<svg version="1.0" xmlns="http://www.w3.org/2000/svg"
 width="50.000000pt" height="50.000000pt" viewBox="0 0 50.000000 50.000000"
 preserveAspectRatio="xMidYMid meet">

<g transform="translate(0.000000,50.000000) scale(0.100000,-0.100000)"
fill="#000000" stroke="none">
<path d="M300 2100 l0 -120 120 0 120 0 0 120 0 120 -120 0 -120 0 0 -120z"/>
<path d="M660 2100 l0 -120 1080 0 1080 0 0 120 0 120 -1080 0 -1080 0 0 -120z"/>
<path d="M180 1680 l0 -120 1320 0 1320 0 0 120 0 120 -1320 0 -1320 0 0 -120z"/>
<path d="M180 1260 l0 -120 1320 0 1320 0 0 120 0 120 -1320 0 -1320 0 0 -120z"/>
<path d="M180 840 l0 -120 1320 0 1320 0 0 120 0 120 -1320 0 -1320 0 0 -120z"/>
</g>
</svg>
